<svg viewBox="0 0 553 122" style="background-color:#ffffff00" xmlns="http://www.w3.org/2000/svg" width="553" height="122"><path opacity=".702" d="M1 61C1 27.862 27.862 1 61 1c33.138 0 60 26.862 60 60 0 33.138-26.862 60-60 60-33.138 0-60-26.862-60-60z"/><path d="M47.5 37v48l39-24-39-24z" fill="#fff"/><path opacity=".702" d="M148 51c0-27.615 22.385-50 50-50s50 22.385 50 50-22.385 50-50 50-50-22.385-50-50z"/><path d="M186.75 31v40l32.5-20-32.5-20z" fill="#fff"/><path opacity=".702" d="M276 41c0-22.092 17.908-40 40-40s40 17.908 40 40-17.908 40-40 40-40-17.908-40-40z"/><path d="M307 25v32l26-16-26-16z" fill="#fff"/><g><path opacity=".702" d="M394 31c0-16.57 13.43-30 30-30s30 13.43 30 30-13.43 30-30 30-30-13.43-30-30z"/><path d="M417.25 19v24l19.5-12-19.5-12z" fill="#fff"/></g><g><path opacity=".702" d="M477 21c0-11.046 8.954-20 20-20s20 8.954 20 20-8.954 20-20 20-20-8.954-20-20z"/><path d="M492.5 13v16l13-8-13-8z" fill="#fff"/></g><g><path opacity=".702" d="M537 8.5a7.5 7.5 0 1 1 15 0 7.5 7.5 0 0 1-15 0z"/><path d="M542.813 5.5v6l4.875-3-4.875-3z" fill="#fff"/></g></svg>