<svg viewBox="0 0 600 504" style="background-color:#ffffff00" xmlns="http://www.w3.org/2000/svg" width="600" height="504"><path d="M320 133c0 11.046-8.954 20-20 20-11.045 0-20-8.954-20-20s8.955-20 20-20c11.046 0 20 8.954 20 20z" fill="#ff6500"/><path d="M314.593 126.124a.4.4 0 0 0 .402-.4v-1.737a.4.4 0 0 0-.402-.4h-9.67a.4.4 0 0 0-.4.4v1.736c0 .222.18.4.4.4h2.192c-.235.603-.57 1.455-.883 2.25-.378.96-.722 1.835-.816 2.08l-.925 2.46c-.35.906-2.054 5.28-2.95 7.575-1.113-2.903-3.85-9.957-3.88-10.03-.09-.254-.433-1.158-.804-2.14-.295-.78-.608-1.608-.828-2.194h2.35a.4.4 0 0 0 .403-.4v-1.737a.4.4 0 0 0-.4-.4h-12.7a.402.402 0 0 0-.402.4v1.736c0 .222.18.4.402.4h3.04l9.264 21.413c.064.147.21.242.368.242h3.8c.16 0 .306-.096.37-.244l9.17-21.41h2.9z" fill="#fff"/><g fill="#ff6d00"><path d="M401.8 362.278h-3.073c-2.494 0-4.305-3.165-5.76-5.705l-.078-.138c-.395-.673-.748-1.38-1.09-2.064-1.157-2.308-2.347-4.687-5.265-6.534 5.273-2.043 8.152-5.818 8.152-10.753 0-7.654-6.317-12.223-16.896-12.223h-22.266c-.38 0-.69.312-.69.698v3.02c0 .386.31.7.69.7h5.75v33h-4.277c-.382 0-.69.312-.69.698v3.022c0 .386.308.698.69.698h22.518c.38 0 .69-.312.69-.698v-3.022c0-.386-.31-.698-.69-.698h-6.498v-12.602c.74.006 1.64.06 2.378.326 1.318.53 5.555 7.32 8.334 12.833 1.99 3.592 4.906 3.892 7.723 3.892.416 0 .84-.007 1.27-.015l9.076-.016c.38 0 .688-.312.688-.698v-3.022c0-.386-.308-.698-.69-.698zm-18.85-25.888c0 4.454-1.89 6.71-5.97 7.1a32.71 32.71 0 0 1-3.963.197v-14.41h3.84c2.946 0 6.094 1.87 6.094 7.113zM431.653 324.86h-23.018c-.382 0-.69.312-.69.698v2.718c0 .387.308.7.69.7h5.75v33.302h-6.346c-.382 0-.69.313-.69.698v3.022c0 .386.308.698.69.698h23.613c14.6 0 22.64-7.482 22.64-21.07 0-13.197-8.25-20.767-22.64-20.767zm10.786 20.867c0 9.265-4.934 16.252-11.477 16.252l-4.837-.002v-32.7h4.923c6.387 0 11.39 7.225 11.39 16.45zM483.763 324.86H460.52c-.38 0-.69.312-.69.698v3.02c0 .387.31.7.69.7h5.75v33h-5.75c-.38 0-.69.313-.69.698v3.022c0 .385.31.698.69.698h23.243c.38 0 .69-.313.69-.698v-3.022c0-.385-.31-.7-.69-.7h-5.75v-33h5.75c.38 0 .69-.31.69-.698v-3.02c0-.386-.31-.7-.69-.7zM539.31 362.278h-5.22l-15.91-37.27a.69.69 0 0 0-.634-.42h-6.527a.688.688 0 0 0-.635.423l-15.75 37.268h-4.985c-.38 0-.69.313-.69.698v3.022c0 .385.31.7.69.7h16.61c.38 0 .688-.315.688-.7v-3.022c0-.385-.308-.698-.69-.698h-3.764c.384-.994.922-2.38 1.434-3.698.533-1.37 1.036-2.67 1.31-3.382h13.663c.252.68.7 1.88 1.18 3.166.517 1.384 1.07 2.87 1.457 3.914h-4.04a.693.693 0 0 0-.688.698v3.022c0 .385.307.7.688.7h21.813c.382 0 .69-.315.69-.7v-3.022c0-.385-.308-.698-.69-.698zm-23.762-15.433l.972 2.667h-9.154c1.005-2.622 3.366-8.762 4.7-12.22.937 2.56 2.398 6.576 3.482 9.554zM350.587 362.277H347.3l-15.91-37.27a.69.69 0 0 0-.634-.42h-6.526a.69.69 0 0 0-.634.423l-15.75 37.267h-4.984a.695.695 0 0 0-.69.7v3.02c0 .386.308.7.69.7h16.608c.38 0 .69-.314.69-.7v-3.02c0-.386-.31-.7-.69-.7h-3.765c.4-1.032.964-2.49 1.495-3.855.51-1.312.986-2.54 1.25-3.225h13.663c.253.69.71 1.912 1.197 3.217.51 1.37 1.057 2.832 1.438 3.863h-4.04c-.38 0-.69.314-.69.7v3.02c0 .386.31.7.69.7h19.878c.38 0 .69-.314.69-.7v-3.02c0-.386-.31-.7-.69-.7zm-21.83-15.435l.974 2.67h-9.153a8733.23 8733.23 0 0 1 4.7-12.22c.936 2.56 2.397 6.573 3.48 9.55zM205.484 324.31h-21.022c-.38 0-.69.313-.69.7v3.024a.693.693 0 0 0 .693.7l6.734-.038v21.584l-20.897-25.715a.686.686 0 0 0-.533-.255h-16.542c-.38 0-.69.313-.69.7v3.02c0 .386.31.7.69.7h7.138l.637.837c-.003 1.327-.02 7.828-.04 14.707l-.046 17.454h-6.077c-.382 0-.69.314-.69.7v3.02c0 .387.308.7.69.7h20.337c.38 0 .69-.313.69-.7v-3.02c0-.386-.31-.7-.69-.7h-7.472l-.01-23.48c5.28 6.48 23.174 28.45 23.174 28.45.13.16.324.252.53.252h6.97c.382 0 .69-.313.69-.698v-37.523h6.424c.38 0 .69-.314.69-.7v-3.02c0-.387-.31-.7-.69-.7zM308.077 328.03v-3.02a.694.694 0 0 0-.69-.7H286.45a.693.693 0 0 0-.688.7v3.02c0 .385.308.7.69.7h6.4v21.447c0 9.54-5.72 11.54-10.517 11.54-7.81 0-8.653-8.962-8.653-12.816v-20.17h6.437c.38 0 .69-.315.69-.7v-3.02a.694.694 0 0 0-.69-.7H255.77c-.38 0-.69.313-.69.7v3.02c0 .385.31.7.69.7h6.252v22.278c0 9.99 7.553 16.443 19.242 16.443 11.914 0 19.613-6.66 19.613-16.972v-21.75h6.507c.382 0 .69-.313.69-.7zM149.302 362.278h-2.63l-15.91-37.27a.688.688 0 0 0-.634-.42h-6.526a.69.69 0 0 0-.634.423s-13.966 33.044-15.75 37.268h-4.984a.694.694 0 0 0-.69.698v3.022c0 .385.308.7.69.7h16.607c.382 0 .69-.315.69-.7v-3.022c0-.385-.308-.698-.69-.698h-3.763c.404-1.048.98-2.53 1.517-3.913.5-1.29.97-2.493 1.228-3.168h13.663c.257.697.72 1.94 1.213 3.26.506 1.358 1.044 2.8 1.422 3.82h-4.038c-.38 0-.69.314-.69.7v3.02c0 .386.31.7.69.7h19.22c.38 0 .69-.314.69-.7v-3.02c0-.386-.31-.7-.69-.7zm-21.425-16.13c.08.218.162.443.24.652l.987 2.712h-9.155c1.004-2.622 3.364-8.76 4.698-12.22.867 2.368 2.18 5.97 3.23 8.855zM110.35 328.95c.38 0 .69-.312.69-.7v-3.02c0-.386-.31-.7-.69-.7l-16.608.002c-.38 0-.69.312-.69.698v3.02c0 .388.31.7.69.7h3.765c-.404 1.048-.98 2.53-1.517 3.913a788.61 788.61 0 0 0-1.402 3.62l-1.59 4.282c-.603 1.58-3.528 9.192-5.07 13.187a6548.17 6548.17 0 0 0-6.66-17.46c-.158-.44-.746-2.014-1.383-3.722-.506-1.357-1.044-2.8-1.42-3.82h4.037c.38 0 .69-.312.69-.7v-3.02c0-.386-.31-.7-.69-.7l-21.812.002c-.38 0-.69.312-.69.698v3.02c0 .388.31.7.69.7h5.22c1.8 4.212 15.913 37.27 15.913 37.27a.69.69 0 0 0 .633.422h6.527a.69.69 0 0 0 .633-.425l15.75-37.267h4.985zM252.242 349.868h-18.617c-.38 0-.69.313-.69.7v3.345c0 .385.31.7.69.7h5.838v8.27c-1.232.297-2.076.407-3.06.407-9.023 0-15.573-7.767-15.573-18.466 0-10.052 7.58-16.274 14.6-16.274 3.39 0 5.89.354 8.017 1.143v5.404c0 .385.308.698.69.698h3.658c.38 0 .69-.313.69-.698v-8.736a.698.698 0 0 0-.425-.644c-2.984-1.264-7.224-2.716-13.573-2.716-15.95 0-26.257 8.92-26.257 22.728 0 14.154 9.36 22.272 25.683 22.272 6.866 0 15.584-2.4 15.952-2.503a.698.698 0 0 0 .507-.673v-10.212h1.87c.38 0 .69-.314.69-.7v-3.344c0-.387-.31-.7-.69-.7z"/></g><g fill="#ff6d00"><path d="M423.007 483.133h-3.712c-3.014 0-5.2-3.797-6.96-6.846l-.094-.165c-.475-.807-.902-1.656-1.316-2.476-1.397-2.772-2.835-5.626-6.36-7.842 6.37-2.453 9.85-6.982 9.85-12.905 0-9.186-7.633-14.668-20.417-14.668h-26.905a.835.835 0 0 0-.833.837v3.624c0 .463.37.838.832.838h6.95v39.6h-5.17a.835.835 0 0 0-.835.84v3.626c0 .463.373.837.834.837h27.21c.46 0 .834-.374.834-.837v-3.627a.835.835 0 0 0-.834-.837h-7.85l-.002-15.12c.894.006 1.98.07 2.874.39 1.593.634 6.712 8.783 10.07 15.4 2.406 4.31 5.93 4.67 9.334 4.67.502 0 1.016-.01 1.534-.018l10.967-.02c.46 0 .833-.374.833-.837v-3.627a.835.835 0 0 0-.833-.837zm-22.774-31.065c0 5.344-2.284 8.052-7.215 8.52-.02.004-2.17.267-4.79.236v-17.292h4.64c3.56 0 7.365 2.244 7.365 8.536zM459.08 438.23h-27.813a.836.836 0 0 0-.834.84v3.262c0 .463.373.838.834.838h6.95v39.963h-7.67a.835.835 0 0 0-.832.838v3.627c0 .464.372.838.833.838h28.532c17.643 0 27.358-8.978 27.358-25.283 0-15.838-9.97-24.92-27.358-24.92zm13.034 25.042c0 11.118-5.96 19.502-13.867 19.502h-5.845v-39.242h5.95c7.717 0 13.762 8.672 13.762 19.74zM522.047 438.23h-28.085a.836.836 0 0 0-.834.84v3.624c0 .464.374.84.834.84h6.95v39.598h-6.95a.837.837 0 0 0-.834.84v3.625c0 .463.374.838.834.838h28.085c.46 0 .834-.375.834-.838v-3.626a.837.837 0 0 0-.833-.838h-6.95v-39.6h6.95c.46 0 .834-.374.834-.838v-3.624a.836.836 0 0 0-.833-.84zM589.168 483.133h-6.31l-19.225-44.724a.835.835 0 0 0-.765-.506h-7.887a.83.83 0 0 0-.764.51s-16.876 39.65-19.032 44.72h-6.024a.836.836 0 0 0-.833.837v3.627c0 .463.373.84.833.84h20.07c.46 0 .832-.377.832-.84v-3.626a.835.835 0 0 0-.833-.837h-4.55c.464-1.192 1.114-2.855 1.733-4.438.644-1.644 1.252-3.202 1.584-4.058h16.51c.302.817.843 2.256 1.423 3.8.625 1.66 1.295 3.443 1.76 4.696h-4.88a.835.835 0 0 0-.832.838v3.627c0 .463.372.84.832.84h26.358c.46 0 .832-.377.832-.84v-3.626a.835.835 0 0 0-.832-.837zm-28.714-18.518l1.175 3.2h-11.062a9568.984 9568.984 0 0 1 5.677-14.663c1.133 3.07 2.9 7.89 4.21 11.463zM361.125 483.132h-3.97l-19.227-44.723a.833.833 0 0 0-.764-.507h-7.886c-.335 0-.635.2-.766.51 0 0-16.875 39.652-19.03 44.72h-6.024a.837.837 0 0 0-.834.838v3.627c0 .463.373.838.834.838h20.068c.46 0 .833-.375.833-.838v-3.626a.836.836 0 0 0-.834-.838h-4.55c.482-1.238 1.166-2.987 1.808-4.625l1.51-3.87h16.51c.306.827.857 2.294 1.446 3.86.617 1.644 1.276 3.4 1.737 4.635h-4.88a.836.836 0 0 0-.834.84v3.625c0 .463.373.838.834.838h24.018c.46 0 .833-.375.833-.838v-3.626a.836.836 0 0 0-.833-.838zM334.75 464.61l1.175 3.205h-11.06c1.214-3.147 4.066-10.515 5.677-14.663 1.132 3.07 2.897 7.886 4.207 11.458zM185.793 437.572H160.39a.835.835 0 0 0-.83.84v3.628a.84.84 0 0 0 .244.594c.157.158.345.233.592.245l8.136-.044v25.9l-25.25-30.858a.83.83 0 0 0-.643-.306h-19.99a.836.836 0 0 0-.832.84v3.623c0 .464.373.84.833.84h8.625l.77 1.005-.047 17.648-.057 20.946H124.6a.837.837 0 0 0-.834.84v3.625c0 .462.373.837.834.837h24.574c.46 0 .834-.375.834-.838v-3.627a.836.836 0 0 0-.834-.84h-9.03l-.01-28.177 28 34.14a.827.827 0 0 0 .643.304h8.423c.46 0 .834-.375.834-.838v-45.028h7.76c.46 0 .834-.375.834-.84v-3.623a.836.836 0 0 0-.833-.838zM309.76 442.036v-3.625a.835.835 0 0 0-.834-.837H283.63a.835.835 0 0 0-.835.838v3.625c0 .463.373.84.834.84h7.732v25.737c0 11.447-6.91 13.848-12.707 13.848-9.437 0-10.456-10.754-10.456-15.38v-24.206h7.777c.46 0 .834-.376.834-.84v-3.623a.836.836 0 0 0-.833-.837h-29.42a.836.836 0 0 0-.832.838v3.625c0 .463.373.84.833.84h7.555v26.734c0 11.986 9.126 19.73 23.25 19.73 14.396 0 23.7-7.993 23.7-20.367v-26.1h7.863c.46 0 .834-.375.834-.837zM117.907 483.133h-3.177L95.502 438.41a.83.83 0 0 0-.765-.506h-7.886c-.333 0-.635.2-.766.51 0 0-16.875 39.65-19.03 44.72h-6.024a.835.835 0 0 0-.833.837v3.627c0 .463.37.84.832.84H81.1c.46 0 .833-.377.833-.84v-3.626a.835.835 0 0 0-.833-.837h-4.548c.488-1.256 1.184-3.037 1.833-4.695.605-1.548 1.17-2.992 1.483-3.8h16.51c.31.835.87 2.326 1.465 3.91.612 1.63 1.262 3.36 1.718 4.585h-4.878a.836.836 0 0 0-.832.838v3.627c0 .463.373.84.832.84h23.225c.46 0 .833-.377.833-.84v-3.626a.836.836 0 0 0-.833-.837zm-25.89-19.357l.29.785 1.193 3.255H82.44c1.213-3.147 4.065-10.514 5.676-14.663a6236.18 6236.18 0 0 1 3.902 10.624zM70.84 443.14c.46 0 .834-.375.834-.84v-3.624a.836.836 0 0 0-.833-.838H50.773a.835.835 0 0 0-.833.838v3.625c0 .465.372.84.832.84h4.55a2387.22 2387.22 0 0 1-1.834 4.696c-.785 2.006-1.5 3.833-1.694 4.344l-1.92 5.138c-.73 1.895-4.265 11.03-6.126 15.825a7814.67 7814.67 0 0 0-8.05-20.953c-.19-.53-.9-2.417-1.67-4.466-.61-1.63-1.262-3.36-1.716-4.584h4.877c.46 0 .833-.375.833-.84v-3.624a.835.835 0 0 0-.834-.838H10.832a.836.836 0 0 0-.833.838v3.625c0 .465.374.84.833.84h6.31l19.226 44.724a.835.835 0 0 0 .764.506h7.887c.333 0 .635-.2.766-.51 0 0 16.875-39.652 19.03-44.72h6.025zM242.293 468.242h-22.496a.836.836 0 0 0-.833.84v4.013c0 .463.373.84.833.84h7.054v9.923c-1.487.358-2.507.49-3.697.49-10.903 0-18.816-9.32-18.816-22.16 0-12.06 9.157-19.527 17.643-19.527 4.095 0 7.115.425 9.685 1.37v6.486c0 .463.372.838.832.838h4.422c.46 0 .83-.375.83-.838v-10.483c0-.338-.2-.643-.51-.774-3.607-1.518-8.73-3.26-16.4-3.26-19.275 0-31.73 10.705-31.73 27.273 0 16.985 11.313 26.727 31.035 26.727 8.296 0 18.83-2.88 19.275-3.003.36-.1.613-.43.613-.81v-12.253h2.26c.46 0 .834-.376.834-.84v-4.013a.837.837 0 0 0-.834-.838z"/></g><g fill="#ff6d00"><path d="M380.59 251.422h-2.43c-1.976 0-3.41-2.53-4.56-4.564l-.063-.11c-.312-.538-.592-1.104-.863-1.65-.915-1.85-1.857-3.75-4.167-5.23 4.174-1.634 6.453-4.653 6.453-8.602 0-6.123-5-9.778-13.375-9.778h-17.628a.552.552 0 0 0-.546.558v2.417c0 .308.245.558.546.558h4.554v26.402h-3.388a.552.552 0 0 0-.546.56v2.417c0 .307.244.557.546.557h17.827c.3 0 .546-.25.546-.558v-2.42c0-.308-.245-.558-.547-.558h-5.145v-10.08c.585.004 1.298.046 1.882.26 1.044.423 4.398 5.855 6.598 10.266 1.576 2.873 3.885 3.113 6.115 3.113.33 0 .666-.004 1.005-.01l7.186-.013c.302 0 .547-.25.547-.558v-2.42c0-.308-.245-.558-.546-.558zm-14.92-20.71c0 3.563-1.496 5.368-4.727 5.68a25.64 25.64 0 0 1-3.138.157v-11.53h3.04c2.333 0 4.825 1.497 4.825 5.692zM404.225 221.487h-18.223a.553.553 0 0 0-.546.56v2.174c0 .31.244.56.546.56h4.554v26.642h-5.025a.552.552 0 0 0-.544.56v2.416c0 .31.243.56.545.56h18.695c11.56 0 17.924-5.987 17.924-16.857 0-10.557-6.534-16.613-17.925-16.613zm8.54 16.695c0 7.41-3.906 13-9.086 13h-3.83v-26.16h3.897c5.057 0 9.017 5.78 9.017 13.16zM445.48 221.487h-18.4a.553.553 0 0 0-.547.56v2.415c0 .31.244.56.546.56h4.55v26.4h-4.55a.553.553 0 0 0-.547.56v2.416c0 .31.244.56.546.56h18.4c.3 0 .545-.25.545-.56v-2.417a.553.553 0 0 0-.546-.558h-4.554v-26.4h4.553c.3 0 .545-.25.545-.56v-2.415c0-.31-.244-.56-.546-.56zM489.455 251.422h-4.134l-12.595-29.816a.547.547 0 0 0-.5-.337h-5.168a.545.545 0 0 0-.502.34l-12.47 29.812h-3.945a.552.552 0 0 0-.546.56v2.416c0 .31.244.56.546.56h13.148c.302 0 .546-.25.546-.56v-2.417a.552.552 0 0 0-.546-.558h-2.98c.303-.795.73-1.903 1.135-2.958.422-1.097.82-2.136 1.038-2.706h10.817l.933 2.533c.41 1.11.848 2.297 1.154 3.132h-3.198c-.302 0-.545.25-.545.56v2.416c0 .31.244.56.546.56h17.27c.3 0 .544-.25.544-.56v-2.417a.552.552 0 0 0-.545-.558zm-18.813-12.346l.77 2.134h-7.247c.795-2.098 2.664-7.01 3.72-9.776.742 2.048 1.9 5.26 2.757 7.642zM340.048 251.422h-2.602l-12.597-29.816a.546.546 0 0 0-.502-.337h-5.166a.545.545 0 0 0-.502.338l-12.468 29.814h-3.946a.553.553 0 0 0-.547.56v2.416c0 .31.244.56.546.56h13.147c.303 0 .546-.25.546-.56v-2.417a.553.553 0 0 0-.546-.558h-2.98c.315-.826.762-1.992 1.183-3.084l.99-2.58h10.815c.2.552.563 1.53.95 2.573l1.137 3.09-3.2.002a.553.553 0 0 0-.545.56v2.416c0 .31.245.56.546.56h15.738c.3 0 .545-.25.545-.56v-2.417a.553.553 0 0 0-.545-.558zm-17.28-12.35l.77 2.138h-7.248c.796-2.098 2.665-7.01 3.72-9.776.742 2.047 1.898 5.258 2.757 7.64zM225.175 221.048h-16.643c-.3 0-.545.25-.545.56v2.42c0 .147.057.29.16.395a.545.545 0 0 0 .388.163l5.33-.03v17.27l-16.542-20.574a.54.54 0 0 0-.422-.204h-13.094c-.302 0-.546.25-.546.56v2.415c0 .31.245.56.546.56h5.65l.505.67-.03 11.766-.037 13.962h-4.812a.553.553 0 0 0-.545.56v2.417c0 .308.245.558.546.558h16.102c.302 0 .546-.25.546-.56v-2.416c0-.31-.244-.56-.546-.56h-5.916l-.006-18.784 18.345 22.76c.103.128.257.202.42.202h5.52c.3 0 .545-.25.545-.56v-30.017h5.085c.3 0 .545-.25.545-.56v-2.416c0-.31-.244-.56-.545-.56zM306.394 224.024v-2.417c0-.308-.244-.558-.546-.558h-16.574a.552.552 0 0 0-.546.557v2.417c0 .308.244.56.546.56h5.067v17.158c0 7.63-4.527 9.23-8.325 9.23-6.183 0-6.85-7.168-6.85-10.25v-16.14h5.096c.302 0 .547-.25.547-.558v-2.417c0-.308-.245-.558-.546-.558h-19.274c-.3 0-.546.25-.546.557v2.417c0 .308.245.56.546.56h4.95v17.822c0 7.992 5.98 13.155 15.233 13.155 9.43 0 15.526-5.33 15.526-13.578v-17.4h5.152c.302 0 .546-.25.546-.558zM180.698 251.422h-2.082l-12.597-29.815a.544.544 0 0 0-.502-.338h-5.167a.546.546 0 0 0-.5.34s-11.056 26.433-12.468 29.812h-3.947a.552.552 0 0 0-.546.56v2.416c0 .31.243.56.545.56h13.148c.3 0 .545-.25.545-.56v-2.417a.552.552 0 0 0-.545-.558h-2.98c.32-.838.776-2.024 1.2-3.13.398-1.032.767-1.994.973-2.534h10.816c.204.558.57 1.55.96 2.608.402 1.086.827 2.24 1.126 3.056h-3.197c-.3 0-.544.25-.544.56v2.416c0 .31.244.56.545.56H180.7c.3 0 .545-.25.545-.56v-2.417a.552.552 0 0 0-.545-.558zm-16.962-12.904l.19.522.78 2.17h-7.246c.796-2.098 2.664-7.01 3.72-9.776.686 1.894 1.725 4.776 2.556 7.084zM149.86 224.76c.302 0 .547-.25.547-.56v-2.416c0-.31-.245-.56-.546-.56h-13.147a.552.552 0 0 0-.546.56v2.417c0 .31.244.56.546.56h2.98c-.32.838-.776 2.025-1.2 3.13a636.888 636.888 0 0 0-1.11 2.897l-1.26 3.425c-.477 1.263-2.793 7.354-4.012 10.55a5305.575 5305.575 0 0 0-5.273-13.97c-.125-.35-.59-1.61-1.094-2.976-.4-1.086-.827-2.24-1.125-3.056h3.196c.302 0 .546-.25.546-.56v-2.416c0-.31-.244-.56-.546-.56h-17.268c-.3 0-.546.25-.546.56v2.417c0 .31.245.56.546.56h4.133l12.596 29.816a.547.547 0 0 0 .5.337h5.17a.546.546 0 0 0 .5-.34l12.468-29.813h3.947zM262.192 241.495h-14.74a.552.552 0 0 0-.545.56v2.675c0 .31.244.56.546.56h4.62v6.616c-.973.238-1.642.326-2.42.326-7.144 0-12.33-6.213-12.33-14.773 0-8.042 6-13.02 11.56-13.02 2.683 0 4.662.283 6.346.914v4.323c0 .31.243.56.544.56h2.897c.302 0 .546-.25.546-.56v-6.988a.56.56 0 0 0-.335-.517c-2.362-1.012-5.718-2.173-10.744-2.173-12.628 0-20.787 7.137-20.787 18.182 0 11.324 7.41 17.818 20.33 17.818 5.437 0 12.34-1.92 12.63-2.002a.557.557 0 0 0 .4-.54v-8.168h1.482c.3 0 .546-.25.546-.56v-2.676c0-.31-.245-.56-.546-.56z"/></g><g><path d="M315 30.5c0 8.284-6.716 15-15 15-8.284 0-15-6.716-15-15 0-8.284 6.716-15 15-15 8.284 0 15 6.716 15 15z" fill="#ff6500"/><path d="M310.945 25.343a.3.3 0 0 0 .3-.3V23.74a.3.3 0 0 0-.3-.3h-7.252a.3.3 0 0 0-.3.3v1.302a.3.3 0 0 0 .3.3h1.644l-.663 1.687c-.284.72-.542 1.376-.612 1.56l-.694 1.844c-.264.68-1.54 3.96-2.214 5.682a2599.83 2599.83 0 0 0-2.91-7.524c-.067-.19-.324-.867-.602-1.603-.22-.586-.456-1.207-.62-1.647h1.762a.3.3 0 0 0 .3-.3V23.74a.3.3 0 0 0-.3-.3h-9.524a.3.3 0 0 0-.3.3v1.302a.3.3 0 0 0 .3.3h2.28l6.948 16.06c.048.11.156.18.276.18l2.85.002a.3.3 0 0 0 .277-.183s6.1-14.237 6.878-16.057h2.177z" fill="#fff"/></g></svg>