<svg viewBox="0 0 20 200" style="background-color:#ffffff00" xmlns="http://www.w3.org/2000/svg" width="20" height="200"><path d="M13.5 12h-.79l-.28-.27A6.472 6.472 0 0 0 14 7.5 6.5 6.5 0 1 0 7.5 14c1.61 0 3.09-.59 4.23-1.57l.27.28v.79l5 4.99L18.49 17l-4.99-5zm-6 0C5.01 12 3 9.99 3 7.5S5.01 3 7.5 3 12 5.01 12 7.5 9.99 12 7.5 12z" fill="#9e9e9e"/><path d="M13.5 72h-.79l-.28-.27A6.472 6.472 0 0 0 14 67.5 6.5 6.5 0 1 0 7.5 74c1.61 0 3.09-.59 4.23-1.57l.27.28v.79l5 4.99L18.49 77l-4.99-5zm-6 0C5.01 72 3 69.99 3 67.5S5.01 63 7.5 63s4.5 2.01 4.5 4.5S9.99 72 7.5 72z" fill="#666"/><path d="M17 124.41L15.59 123 10 128.59 4.41 123 3 124.41 8.59 130 3 135.59 4.41 137l5.59-5.59 5.59 5.59 1.41-1.41-5.59-5.59 5.59-5.59z" fill="#9e9e9e"/><path d="M17 183.41L15.59 182 10 187.59 4.41 182 3 183.41 8.59 189 3 194.59 4.41 196l5.59-5.59 5.59 5.59 1.41-1.41-5.59-5.59 5.59-5.59z" fill="#666"/></svg>