<svg viewBox="0 0 40 671" style="background-color:#ffffff00" xmlns="http://www.w3.org/2000/svg" width="40" height="671"><path d="M11.025 6.742l.004-1.38c0-.72.048-1.104 1.08-1.104h1.906V1.5h-2.733c-2.65 0-3.26 1.37-3.26 3.618l.004 1.624h-2.01V9.5h2.01v8h2.998l.002-8h2.724l.293-2.758h-3.018zM18.002 49.538c-.59.26-1.22.44-1.885.517a3.3 3.3 0 0 0 1.444-1.815 6.623 6.623 0 0 1-2.085.797A3.283 3.283 0 0 0 9.88 52.03a9.323 9.323 0 0 1-6.767-3.43 3.282 3.282 0 0 0 1.016 4.383 3.287 3.287 0 0 1-1.486-.413v.04a3.287 3.287 0 0 0 2.633 3.22 3.234 3.234 0 0 1-1.483.055 3.285 3.285 0 0 0 3.066 2.28 6.588 6.588 0 0 1-4.077 1.403c-.265 0-.526-.015-.783-.045A9.28 9.28 0 0 0 7.032 61c6.038 0 9.34-5.002 9.34-9.34l-.01-.426A6.61 6.61 0 0 0 18 49.538zM16.4 134H3.6c-.88 0-1.6.72-1.6 1.6v12.8c0 .88.72 1.6 1.6 1.6h12.8c.88 0 1.6-.72 1.6-1.6v-12.8c0-.88-.72-1.6-1.6-1.6zm-6.4 4.8c1.76 0 3.2 1.44 3.2 3.2 0 1.76-1.44 3.2-3.2 3.2a3.21 3.21 0 0 1-3.2-3.2c0-1.76 1.44-3.2 3.2-3.2zm-6 9.6c-.24 0-.4-.16-.4-.4v-6.8h1.68c-.08.24-.08.56-.08.8 0 2.64 2.16 4.8 4.8 4.8 2.64 0 4.8-2.16 4.8-4.8 0-.24 0-.56-.08-.8h1.68v6.8c0 .24-.16.4-.4.4H4zm12.4-10.8c0 .24-.16.4-.4.4h-1.6c-.24 0-.4-.16-.4-.4V136c0-.24.16-.4.4-.4H16c.24 0 .4.16.4.4v1.6z" fill="#9e9e9e"/><g fill="#9e9e9e"><path d="M10.734 91H6.548c-1.876 0-3.642 1.422-3.642 3.068 0 1.684 1.28 3.043 3.19 3.043l.387-.01a1.704 1.704 0 0 0-.213.78c0 .47.252.848.57 1.157l-.726.008C3.79 99.045 2 100.525 2 102.06c0 1.512 1.962 2.458 4.286 2.458 2.65 0 4.114-1.504 4.114-3.016 0-1.212-.358-1.94-1.464-2.72-.378-.27-1.102-.92-1.102-1.303 0-.45.128-.67.804-1.2.692-.54 1.182-1.302 1.182-2.185 0-1.053-.47-2.08-1.35-2.418h1.327l.937-.677zm-1.46 10.242c.032.14.05.283.05.432 0 1.222-.787 2.177-3.046 2.177-1.607 0-2.767-1.016-2.767-2.24 0-1.195 1.44-2.19 3.047-2.175a3.53 3.53 0 0 1 1.042.167c.87.605 1.497.948 1.673 1.64zM6.7 96.684c-1.08-.032-2.104-1.207-2.29-2.623-.186-1.416.537-2.5 1.615-2.468 1.078.032 2.104 1.17 2.29 2.585.187 1.417-.537 2.54-1.615 2.507zM15 93.967V91h-1v2.967h-3v1h3V98h1v-3.033h3v-1h-3z"/></g><path d="M11.087 193.606c-1.02-.073-1.446-.555-2.244-1.018-.434 2.196-.97 4.314-2.56 5.412-.49-3.328.723-5.83 1.285-8.48-.96-1.547.11-4.65 2.133-3.884 2.483.936-2.156 5.74.962 6.334 3.246.627 4.572-5.398 2.558-7.36-2.915-2.834-8.475-.066-7.794 3.99.17.984 1.24 1.286.434 2.654-1.87-.394-2.423-1.8-2.355-3.682.12-3.068 2.882-5.22 5.662-5.518 3.51-.376 6.798 1.23 7.257 4.395.51 3.566-1.58 7.44-5.337 7.156zm0 0z" fill="#9e9e9e"/><path d="M11.025 224.742l.004-1.38c0-.72.048-1.104 1.08-1.104h1.906V219.5h-2.733c-2.65 0-3.26 1.37-3.26 3.618l.004 1.624h-2.01v2.758h2.01v8h2.998l.002-8h2.724l.293-2.758h-3.018z" fill="#3b5998"/><path d="M18.002 267.538c-.59.26-1.22.44-1.885.517a3.3 3.3 0 0 0 1.444-1.815 6.623 6.623 0 0 1-2.085.797 3.283 3.283 0 0 0-5.594 2.993 9.323 9.323 0 0 1-6.767-3.43 3.282 3.282 0 0 0 1.016 4.383 3.287 3.287 0 0 1-1.486-.413v.04a3.287 3.287 0 0 0 2.633 3.22 3.234 3.234 0 0 1-1.483.055 3.285 3.285 0 0 0 3.066 2.28 6.588 6.588 0 0 1-4.077 1.403c-.265 0-.526-.015-.783-.045A9.28 9.28 0 0 0 7.032 279c6.038 0 9.34-5.002 9.34-9.34l-.01-.426a6.61 6.61 0 0 0 1.64-1.696z" fill="#55acee"/><path d="M16.4 352H3.6c-.88 0-1.6.72-1.6 1.6v12.8c0 .88.72 1.6 1.6 1.6h12.8c.88 0 1.6-.72 1.6-1.6v-12.8c0-.88-.72-1.6-1.6-1.6zm-6.4 4.8c1.76 0 3.2 1.44 3.2 3.2 0 1.76-1.44 3.2-3.2 3.2a3.21 3.21 0 0 1-3.2-3.2c0-1.76 1.44-3.2 3.2-3.2zm-6 9.6c-.24 0-.4-.16-.4-.4v-6.8h1.68c-.08.24-.08.56-.08.8 0 2.64 2.16 4.8 4.8 4.8 2.64 0 4.8-2.16 4.8-4.8 0-.24 0-.56-.08-.8h1.68v6.8c0 .24-.16.4-.4.4H4zm12.4-10.8c0 .24-.16.4-.4.4h-1.6c-.24 0-.4-.16-.4-.4V354c0-.24.16-.4.4-.4H16c.24 0 .4.16.4.4v1.6z" fill="#3f729b"/><path d="M10.734 309H6.548c-1.876 0-3.642 1.422-3.642 3.068 0 1.684 1.28 3.043 3.19 3.043l.387-.01a1.704 1.704 0 0 0-.213.78c0 .47.252.848.57 1.157l-.726.008c-2.325 0-4.114 1.48-4.114 3.015 0 1.512 1.962 2.458 4.286 2.458 2.65 0 4.114-1.504 4.114-3.016 0-1.212-.358-1.94-1.464-2.72-.378-.27-1.102-.92-1.102-1.303 0-.45.128-.67.804-1.2.692-.54 1.182-1.3 1.182-2.185 0-1.053-.47-2.08-1.35-2.418h1.327l.937-.677zm-1.46 10.242c.032.14.05.283.05.432 0 1.223-.787 2.177-3.046 2.177-1.607 0-2.767-1.016-2.767-2.24 0-1.195 1.44-2.19 3.047-2.175a3.53 3.53 0 0 1 1.042.167c.87.605 1.497.948 1.673 1.64zM6.7 314.684c-1.08-.032-2.104-1.207-2.29-2.624-.186-1.416.537-2.5 1.615-2.468 1.078.032 2.104 1.17 2.29 2.585.187 1.417-.537 2.54-1.615 2.507zM15 311.967V309h-1v2.967h-3v1h3V316h1v-3.033h3v-1h-3z" fill="#dd4b39"/><path d="M11.087 411.606c-1.02-.073-1.446-.555-2.244-1.018-.434 2.196-.97 4.314-2.56 5.412-.49-3.328.723-5.83 1.285-8.48-.96-1.547.11-4.65 2.133-3.884 2.483.936-2.156 5.74.962 6.334 3.246.627 4.572-5.398 2.558-7.36-2.915-2.834-8.475-.066-7.794 3.99.17.984 1.24 1.286.434 2.654-1.87-.394-2.423-1.8-2.355-3.682.12-3.068 2.882-5.22 5.662-5.518 3.51-.376 6.798 1.23 7.257 4.395.51 3.566-1.58 7.44-5.337 7.156zm0 0z" fill="#cc2127"/><path d="M16.4 436H3.6c-.88 0-1.592.73-1.592 1.625L2 447.375c0 .893.72 1.625 1.6 1.625h12.8c.88 0 1.6-.732 1.6-1.625v-9.75c0-.894-.72-1.625-1.6-1.625zm0 3.25l-6.4 4.063-6.4-4.063v-1.625l6.4 4.063 6.4-4.063v1.625z" fill="#9e9e9e"/><path d="M16.4 480H3.6c-.88 0-1.592.73-1.592 1.625L2 491.375c0 .893.72 1.625 1.6 1.625h12.8c.88 0 1.6-.732 1.6-1.625v-9.75c0-.894-.72-1.625-1.6-1.625zm0 3.25l-6.4 4.063-6.4-4.063v-1.625l6.4 4.063 6.4-4.063v1.625z" fill="#666"/><path d="M3 609.636V614h4.364A4.358 4.358 0 0 0 3 609.636zm0-5.818v2.91A7.276 7.276 0 0 1 10.273 614h2.91c0-5.63-4.554-10.182-10.183-10.182zM3 598v2.91c7.23 0 13.09 5.86 13.09 13.09H19c0-8.844-7.17-16-16-16z" fill="#9e9e9e"/><path d="M3 652.636V657h4.364A4.358 4.358 0 0 0 3 652.636zm0-5.818v2.91A7.276 7.276 0 0 1 10.273 657h2.91c0-5.63-4.554-10.182-10.183-10.182zM3 641v2.91c7.23 0 13.09 5.86 13.09 13.09H19c0-8.844-7.17-16-16-16z" fill="#666"/><path d="M25 522.418A3.428 3.428 0 0 0 21.563 519H5.437C3.54 519 2 520.53 2 522.418v9.164A3.428 3.428 0 0 0 5.437 535h16.126c1.898 0 3.437-1.53 3.437-3.418v-9.164zm-13.8 8.45v-8.61l6.568 4.304-6.568 4.305z" fill="#9e9e9e"/><path d="M25 563.418A3.428 3.428 0 0 0 21.563 560H5.437C3.54 560 2 561.53 2 563.418v9.164A3.428 3.428 0 0 0 5.437 576h16.126c1.898 0 3.437-1.53 3.437-3.418v-9.164zm-13.8 8.45v-8.61l6.568 4.304-6.568 4.305z" fill="#e52d27"/></svg>